<svg id="SvgjsSvg1006" width="564.5" height="411.5" xmlns="http://www.w3.org/2000/svg" version="1.1" xmlns:xlink="http://www.w3.org/1999/xlink" xmlns:svgjs="http://svgjs.com/svgjs"><defs id="SvgjsDefs1007"></defs><g id="SvgjsG1008" transform="translate(77.5,326)"><path id="SvgjsPath1009" d="M 0 0L 154 0L 154 58L 0 58Z" stroke="rgba(115,115,115,1)" stroke-width="1" fill-opacity="1" fill="#e5e5e5"></path><g id="SvgjsG1010"><text id="SvgjsText1011" font-family="微软雅黑" text-anchor="middle" font-size="13px" width="134px" fill="#323232" font-weight="400" align="middle" anchor="middle" family="微软雅黑" size="13px" weight="400" font-style="" opacity="1" y="11.05" transform="rotate(0)"><tspan id="SvgjsTspan1012" dy="16" x="77"><tspan id="SvgjsTspan1013" style="text-decoration:;">Local</tspan></tspan><tspan id="SvgjsTspan1014" dy="16" x="77"><tspan id="SvgjsTspan1015" style="text-decoration:;">Single JVM</tspan></tspan></text></g></g><g id="SvgjsG1016" transform="translate(231.5,326)"><path id="SvgjsPath1017" d="M 0 0L 154 0L 154 58L 0 58Z" stroke="rgba(115,115,115,1)" stroke-width="1" fill-opacity="1" fill="#e5e5e5"></path><g id="SvgjsG1018"><text id="SvgjsText1019" font-family="微软雅黑" text-anchor="middle" font-size="13px" width="134px" fill="#323232" font-weight="400" align="middle" anchor="middle" family="微软雅黑" size="13px" weight="400" font-style="" opacity="1" y="11.05" transform="rotate(0)"><tspan id="SvgjsTspan1020" dy="16" x="77"><tspan id="SvgjsTspan1021" style="text-decoration:;">Cluster</tspan></tspan><tspan id="SvgjsTspan1022" dy="16" x="77"><tspan id="SvgjsTspan1023" style="text-decoration:;">Standalone、YARN</tspan></tspan></text></g></g><g id="SvgjsG1024" transform="translate(385.5,326)"><path id="SvgjsPath1025" d="M 0 0L 154 0L 154 58L 0 58Z" stroke="rgba(115,115,115,1)" stroke-width="1" fill-opacity="1" fill="#e5e5e5"></path><g id="SvgjsG1026"><text id="SvgjsText1027" font-family="微软雅黑" text-anchor="middle" font-size="13px" width="134px" fill="#323232" font-weight="400" align="middle" anchor="middle" family="微软雅黑" size="13px" weight="400" font-style="" opacity="1" y="11.05" transform="rotate(0)"><tspan id="SvgjsTspan1028" dy="16" x="77"><tspan id="SvgjsTspan1029" style="text-decoration:;">Cloud</tspan></tspan><tspan id="SvgjsTspan1030" dy="16" x="77"><tspan id="SvgjsTspan1031" style="text-decoration:;">GCE、CE2</tspan></tspan></text></g></g><g id="SvgjsG1032" transform="translate(77.5,268)"><path id="SvgjsPath1033" d="M 0 0L 462 0L 462 58L 0 58Z" stroke="rgba(115,115,115,1)" stroke-width="1" fill-opacity="1" fill="#ffcc99"></path><g id="SvgjsG1034"><text id="SvgjsText1035" font-family="微软雅黑" text-anchor="middle" font-size="13px" width="442px" fill="#323232" font-weight="400" align="middle" anchor="middle" family="微软雅黑" size="13px" weight="400" font-style="" opacity="1" y="11.05" transform="rotate(0)"><tspan id="SvgjsTspan1036" dy="16" x="231"><tspan id="SvgjsTspan1037" style="text-decoration:;">Runtime</tspan></tspan><tspan id="SvgjsTspan1038" dy="16" x="231"><tspan id="SvgjsTspan1039" style="text-decoration:;">Distributed Streaming Dataflow</tspan></tspan></text></g></g><g id="SvgjsG1040" transform="translate(77.5,210)"><path id="SvgjsPath1041" d="M 0 0L 231 0L 231 58L 0 58Z" stroke="rgba(115,115,115,1)" stroke-width="1" fill-opacity="1" fill="#ffe6cc"></path><g id="SvgjsG1042"><text id="SvgjsText1043" font-family="微软雅黑" text-anchor="middle" font-size="13px" width="211px" fill="#323232" font-weight="400" align="middle" anchor="middle" family="微软雅黑" size="13px" weight="400" font-style="" opacity="1" y="11.05" transform="rotate(0)"><tspan id="SvgjsTspan1044" dy="16" x="115.5"><tspan id="SvgjsTspan1045" style="text-decoration:;">DataStream API</tspan></tspan><tspan id="SvgjsTspan1046" dy="16" x="115.5"><tspan id="SvgjsTspan1047" style="text-decoration:;">Stream Processing</tspan></tspan></text></g></g><g id="SvgjsG1048" transform="translate(308.5,210)"><path id="SvgjsPath1049" d="M 0 0L 231 0L 231 58L 0 58Z" stroke="rgba(115,115,115,1)" stroke-width="1" fill-opacity="1" fill="#ffe6cc"></path><g id="SvgjsG1050"><text id="SvgjsText1051" font-family="微软雅黑" text-anchor="middle" font-size="13px" width="211px" fill="#323232" font-weight="400" align="middle" anchor="middle" family="微软雅黑" size="13px" weight="400" font-style="" opacity="1" y="11.05" transform="rotate(0)"><tspan id="SvgjsTspan1052" dy="16" x="115.5"><tspan id="SvgjsTspan1053" style="text-decoration:;">DataSet API</tspan></tspan><tspan id="SvgjsTspan1054" dy="16" x="115.5"><tspan id="SvgjsTspan1055" style="text-decoration:;">Batch Processing</tspan></tspan></text></g></g><g id="SvgjsG1056" transform="translate(77.5,25)"><path id="SvgjsPath1057" d="M 0 0L 60 0L 60 185L 0 185Z" stroke="rgba(115,115,115,1)" stroke-width="1" fill-opacity="1" fill="#ffffcc"></path><g id="SvgjsG1058"><text id="SvgjsText1059" font-family="微软雅黑" text-anchor="middle" font-size="13px" width="40px" fill="#323232" font-weight="400" align="middle" anchor="middle" family="微软雅黑" size="13px" weight="400" font-style="" opacity="1" y="82.55" transform="rotate(0)"></text></g></g><g id="SvgjsG1060" transform="translate(137.5,25)"><path id="SvgjsPath1061" d="M 0 0L 60 0L 60 185L 0 185Z" stroke="rgba(115,115,115,1)" stroke-width="1" fill-opacity="1" fill="#ffffcc"></path><g id="SvgjsG1062"><text id="SvgjsText1063" font-family="微软雅黑" text-anchor="middle" font-size="13px" width="40px" fill="#323232" font-weight="400" align="middle" anchor="middle" family="微软雅黑" size="13px" weight="400" font-style="" opacity="1" y="82.55" transform="rotate(0)"></text></g></g><g id="SvgjsG1064" transform="translate(308.5,25)"><path id="SvgjsPath1065" d="M 0 0L 60 0L 60 185L 0 185Z" stroke="rgba(115,115,115,1)" stroke-width="1" fill-opacity="1" fill="#ffffcc"></path><g id="SvgjsG1066"><text id="SvgjsText1067" font-family="微软雅黑" text-anchor="middle" font-size="13px" width="40px" fill="#323232" font-weight="400" align="middle" anchor="middle" family="微软雅黑" size="13px" weight="400" font-style="" opacity="1" y="82.55" transform="rotate(0)"></text></g></g><g id="SvgjsG1068" transform="translate(368.5,25)"><path id="SvgjsPath1069" d="M 0 0L 60 0L 60 185L 0 185Z" stroke="rgba(115,115,115,1)" stroke-width="1" fill-opacity="1" fill="#ffffcc"></path><g id="SvgjsG1070"><text id="SvgjsText1071" font-family="微软雅黑" text-anchor="middle" font-size="13px" width="40px" fill="#323232" font-weight="400" align="middle" anchor="middle" family="微软雅黑" size="13px" weight="400" font-style="" opacity="1" y="82.55" transform="rotate(0)"></text></g></g><g id="SvgjsG1072" transform="translate(428.5,25)"><path id="SvgjsPath1073" d="M 0 0L 60 0L 60 185L 0 185Z" stroke="rgba(115,115,115,1)" stroke-width="1" fill-opacity="1" fill="#ffffcc"></path><g id="SvgjsG1074"><text id="SvgjsText1075" font-family="微软雅黑" text-anchor="middle" font-size="13px" width="40px" fill="#323232" font-weight="400" align="middle" anchor="middle" family="微软雅黑" size="13px" weight="400" font-style="" opacity="1" y="82.55" transform="rotate(0)"></text></g></g><g id="SvgjsG1076" transform="matrix(-1.8369701987210297e-16,-1,1,-1.8369701987210297e-16,25.000000000000014,386.5)"><path id="SvgjsPath1077" d="M 0 0L 63.000000000000014 0L 63.000000000000014 40L 0 40Z" stroke="none" fill="none"></path><g id="SvgjsG1078"><text id="SvgjsText1079" font-family="微软雅黑" text-anchor="middle" font-size="13px" width="64px" fill="#323232" font-weight="700" align="middle" anchor="middle" family="微软雅黑" size="13px" weight="700" font-style="" opacity="1" y="10.05" transform="rotate(0)"><tspan id="SvgjsTspan1080" dy="16" x="32"><tspan id="SvgjsTspan1081" style="text-decoration:;">Deploy</tspan></tspan></text></g></g><g id="SvgjsG1082" transform="matrix(-1.8369701987210297e-16,-1,1,-1.8369701987210297e-16,25.500000000000014,332)"><path id="SvgjsPath1083" d="M 0 0L 70.00000000000001 0L 70.00000000000001 39L 0 39Z" stroke="none" fill="none"></path><g id="SvgjsG1084"><text id="SvgjsText1085" font-family="微软雅黑" text-anchor="middle" font-size="13px" width="71px" fill="#323232" font-weight="700" align="middle" anchor="middle" family="微软雅黑" size="13px" weight="700" font-style="" opacity="1" y="9.55" transform="rotate(0)"><tspan id="SvgjsTspan1086" dy="16" x="35.5"><tspan id="SvgjsTspan1087" style="text-decoration:;">Core</tspan></tspan></text></g></g><g id="SvgjsG1088" transform="matrix(-1.8369701987210297e-16,-1,1,-1.8369701987210297e-16,25.00000000000001,269)"><path id="SvgjsPath1089" d="M 0 0L 120 0L 120 40L 0 40Z" stroke="none" fill="none"></path><g id="SvgjsG1090"><text id="SvgjsText1091" font-family="微软雅黑" text-anchor="middle" font-size="13px" width="120px" fill="#323232" font-weight="700" align="middle" anchor="middle" family="微软雅黑" size="13px" weight="700" font-style="" opacity="1" y="10.05" transform="rotate(0)"><tspan id="SvgjsTspan1092" dy="16" x="60"><tspan id="SvgjsTspan1093" style="text-decoration:;">APIs&amp;Libraries</tspan></tspan></text></g></g><g id="SvgjsG1094" transform="matrix(-1.8369701987210297e-16,-1,1,-1.8369701987210297e-16,74.5,152.5)"><path id="SvgjsPath1095" d="M 0 0L 70.00000000000001 0L 70.00000000000001 39L 0 39Z" stroke="none" fill="none"></path><g id="SvgjsG1096"><text id="SvgjsText1097" font-family="微软雅黑" text-anchor="middle" font-size="13px" width="71px" fill="#323232" font-weight="700" align="middle" anchor="middle" family="微软雅黑" size="13px" weight="700" font-style="" opacity="1" y="9.55" transform="rotate(0)"><tspan id="SvgjsTspan1098" dy="16" x="35.5"><tspan id="SvgjsTspan1099" style="text-decoration:;">CEP</tspan></tspan></text></g></g><g id="SvgjsG1100" transform="matrix(-1.8369701987210297e-16,-1,1,-1.8369701987210297e-16,96.5,192.25)"><path id="SvgjsPath1101" d="M 0 0L 149.5 0L 149.5 40.00000000000003L 0 40.00000000000003Z" stroke="none" fill="none"></path><g id="SvgjsG1102"><text id="SvgjsText1103" font-family="微软雅黑" text-anchor="middle" font-size="13px" width="150px" fill="#323232" font-weight="400" align="middle" anchor="middle" family="微软雅黑" size="13px" weight="400" font-style="" opacity="1" y="10.050000000000015" transform="rotate(0)"><tspan id="SvgjsTspan1104" dy="16" x="75"><tspan id="SvgjsTspan1105" style="text-decoration:;">Event Processing</tspan></tspan></text></g></g><g id="SvgjsG1106" transform="matrix(-1.8369701987210297e-16,-1,1,-1.8369701987210297e-16,136.00000000000003,193.5)"><path id="SvgjsPath1107" d="M 0 0L 152 0L 152 39.99999999999997L 0 39.99999999999997Z" stroke="none" fill="none"></path><g id="SvgjsG1108"><text id="SvgjsText1109" font-family="微软雅黑" text-anchor="middle" font-size="13px" width="152px" fill="#323232" font-weight="700" align="middle" anchor="middle" family="微软雅黑" size="13px" weight="700" font-style="" opacity="1" y="10.049999999999986" transform="rotate(0)"><tspan id="SvgjsTspan1110" dy="16" x="76"><tspan id="SvgjsTspan1111" style="text-decoration:;">Table API &amp; SQL</tspan></tspan></text></g></g><g id="SvgjsG1112" transform="matrix(-1.8369701987210297e-16,-1,1,-1.8369701987210297e-16,157.5,192.25)"><path id="SvgjsPath1113" d="M 0 0L 149.5 0L 149.5 40.00000000000003L 0 40.00000000000003Z" stroke="none" fill="none"></path><g id="SvgjsG1114"><text id="SvgjsText1115" font-family="微软雅黑" text-anchor="middle" font-size="13px" width="150px" fill="#323232" font-weight="400" align="middle" anchor="middle" family="微软雅黑" size="13px" weight="400" font-style="" opacity="1" y="10.050000000000015" transform="rotate(0)"><tspan id="SvgjsTspan1116" dy="16" x="75"><tspan id="SvgjsTspan1117" style="text-decoration:;">Relational</tspan></tspan></text></g></g><g id="SvgjsG1118" transform="matrix(-1.8369701987210297e-16,-1,1,-1.8369701987210297e-16,328.75,192.25)"><path id="SvgjsPath1119" d="M 0 0L 149.5 0L 149.5 40.00000000000003L 0 40.00000000000003Z" stroke="none" fill="none"></path><g id="SvgjsG1120"><text id="SvgjsText1121" font-family="微软雅黑" text-anchor="middle" font-size="13px" width="150px" fill="#323232" font-weight="400" align="middle" anchor="middle" family="微软雅黑" size="13px" weight="400" font-style="" opacity="1" y="10.050000000000015" transform="rotate(0)"><tspan id="SvgjsTspan1122" dy="16" x="75"><tspan id="SvgjsTspan1123" style="text-decoration:;">Machine Learning</tspan></tspan></text></g></g><g id="SvgjsG1124" transform="matrix(-1.8369701987210297e-16,-1,1,-1.8369701987210297e-16,390.75,192.25)"><path id="SvgjsPath1125" d="M 0 0L 149.5 0L 149.5 40.00000000000003L 0 40.00000000000003Z" stroke="none" fill="none"></path><g id="SvgjsG1126"><text id="SvgjsText1127" font-family="微软雅黑" text-anchor="middle" font-size="13px" width="150px" fill="#323232" font-weight="400" align="middle" anchor="middle" family="微软雅黑" size="13px" weight="400" font-style="" opacity="1" y="10.050000000000015" transform="rotate(0)"><tspan id="SvgjsTspan1128" dy="16" x="75"><tspan id="SvgjsTspan1129" style="text-decoration:;">Graph Processing</tspan></tspan></text></g></g><g id="SvgjsG1130" transform="matrix(-1.8369701987210297e-16,-1,1,-1.8369701987210297e-16,449.5,192.25)"><path id="SvgjsPath1131" d="M 0 0L 149.5 0L 149.5 40.00000000000003L 0 40.00000000000003Z" stroke="none" fill="none"></path><g id="SvgjsG1132"><text id="SvgjsText1133" font-family="微软雅黑" text-anchor="middle" font-size="13px" width="150px" fill="#323232" font-weight="400" align="middle" anchor="middle" family="微软雅黑" size="13px" weight="400" font-style="" opacity="1" y="10.050000000000015" transform="rotate(0)"><tspan id="SvgjsTspan1134" dy="16" x="75"><tspan id="SvgjsTspan1135" style="text-decoration:;">Relational</tspan></tspan></text></g></g><g id="SvgjsG1136" transform="matrix(-1.8369701987210297e-16,-1,1,-1.8369701987210297e-16,306,191.75)"><path id="SvgjsPath1137" d="M 0 0L 148.5 0L 148.5 41L 0 41Z" stroke="none" fill="none"></path><g id="SvgjsG1138"><text id="SvgjsText1139" font-family="微软雅黑" text-anchor="middle" font-size="13px" width="149px" fill="#323232" font-weight="700" align="middle" anchor="middle" family="微软雅黑" size="13px" weight="700" font-style="" opacity="1" y="10.55" transform="rotate(0)"><tspan id="SvgjsTspan1140" dy="16" x="74.5"><tspan id="SvgjsTspan1141" style="text-decoration:;">FlinkML</tspan></tspan></text></g></g><g id="SvgjsG1142" transform="matrix(-1.8369701987210297e-16,-1,1,-1.8369701987210297e-16,366.5,192.25)"><path id="SvgjsPath1143" d="M 0 0L 149.5 0L 149.5 40L 0 40Z" stroke="none" fill="none"></path><g id="SvgjsG1144"><text id="SvgjsText1145" font-family="微软雅黑" text-anchor="middle" font-size="13px" width="150px" fill="#323232" font-weight="700" align="middle" anchor="middle" family="微软雅黑" size="13px" weight="700" font-style="" opacity="1" y="10.05" transform="rotate(0)"><tspan id="SvgjsTspan1146" dy="16" x="75"><tspan id="SvgjsTspan1147" style="text-decoration:;">Gelly</tspan></tspan></text></g></g><g id="SvgjsG1148" transform="matrix(-1.8369701987210297e-16,-1,1,-1.8369701987210297e-16,425.75,190.25)"><path id="SvgjsPath1149" d="M 0 0L 145.5 0L 145.5 41L 0 41Z" stroke="none" fill="none"></path><g id="SvgjsG1150"><text id="SvgjsText1151" font-family="微软雅黑" text-anchor="middle" font-size="13px" width="146px" fill="#323232" font-weight="700" align="middle" anchor="middle" family="微软雅黑" size="13px" weight="700" font-style="" opacity="1" y="10.55" transform="rotate(0)"><tspan id="SvgjsTspan1152" dy="16" x="73"><tspan id="SvgjsTspan1153" style="text-decoration:;">Table API &amp; SQL</tspan></tspan></text></g></g></svg>