<svg id="SvgjsSvg1006" width="546" height="295" xmlns="http://www.w3.org/2000/svg" version="1.1" xmlns:xlink="http://www.w3.org/1999/xlink" xmlns:svgjs="http://svgjs.com/svgjs"><defs id="SvgjsDefs1007"><marker id="SvgjsMarker1034" markerWidth="16" markerHeight="12" refX="16" refY="6" viewBox="0 0 16 12" orient="auto" markerUnits="userSpaceOnUse" stroke-dasharray="0,0"><path id="SvgjsPath1035" d="M0,2 L14,6 L0,11 L0,2" fill="#323232" stroke="#323232" stroke-width="2"></path></marker><marker id="SvgjsMarker1042" markerWidth="16" markerHeight="12" refX="16" refY="6" viewBox="0 0 16 12" orient="auto" markerUnits="userSpaceOnUse" stroke-dasharray="0,0"><path id="SvgjsPath1043" d="M0,2 L14,6 L0,11 L0,2" fill="#323232" stroke="#323232" stroke-width="2"></path></marker><marker id="SvgjsMarker1050" markerWidth="16" markerHeight="12" refX="16" refY="6" viewBox="0 0 16 12" orient="auto" markerUnits="userSpaceOnUse" stroke-dasharray="0,0"><path id="SvgjsPath1051" d="M0,2 L14,6 L0,11 L0,2" fill="#323232" stroke="#323232" stroke-width="2"></path></marker><marker id="SvgjsMarker1058" markerWidth="16" markerHeight="12" refX="16" refY="6" viewBox="0 0 16 12" orient="auto" markerUnits="userSpaceOnUse" stroke-dasharray="0,0"><path id="SvgjsPath1059" d="M0,2 L14,6 L0,11 L0,2" fill="#323232" stroke="#323232" stroke-width="2"></path></marker><marker id="SvgjsMarker1066" markerWidth="16" markerHeight="12" refX="16" refY="6" viewBox="0 0 16 12" orient="auto" markerUnits="userSpaceOnUse" stroke-dasharray="0,0"><path id="SvgjsPath1067" d="M0,2 L14,6 L0,11 L0,2" fill="#323232" stroke="#323232" stroke-width="2"></path></marker><marker id="SvgjsMarker1074" markerWidth="16" markerHeight="12" refX="0" refY="6" viewBox="0 0 16 12" orient="auto" markerUnits="userSpaceOnUse" stroke-dasharray="0,0"><path id="SvgjsPath1075" d="M15,1.5 L2,6 L15,10.5" fill="#323232" stroke="#323232" stroke-width="2"></path></marker><marker id="SvgjsMarker1076" markerWidth="16" markerHeight="12" refX="16" refY="6" viewBox="0 0 16 12" orient="auto" markerUnits="userSpaceOnUse" stroke-dasharray="0,0"><path id="SvgjsPath1077" d="M0,2 L14,6 L0,11 L0,2" fill="#323232" stroke="#323232" stroke-width="2"></path></marker></defs><g id="SvgjsG1008" transform="translate(25,31)"><path id="SvgjsPath1009" d="M 0 4Q 0 0 4 0L 91 0Q 95 0 95 4L 95 31Q 95 35 91 35L 4 35Q 0 35 0 31Z" stroke="none" fill-opacity="1" fill="#ccffff"></path><g id="SvgjsG1010"><text id="SvgjsText1011" font-family="微软雅黑" text-anchor="middle" font-size="13px" width="75px" fill="#323232" font-weight="400" align="middle" anchor="middle" family="微软雅黑" size="13px" weight="400" font-style="" opacity="1" y="7.55" transform="rotate(0)"><tspan id="SvgjsTspan1012" dy="16" x="47.5"><tspan id="SvgjsTspan1013" style="text-decoration:;">Client</tspan></tspan></text></g></g><g id="SvgjsG1014" transform="translate(221,25)"><path id="SvgjsPath1015" d="M 0 0L 112 0L 112 47L 0 47Z" stroke="none" fill-opacity="1" fill="#ffcccc"></path><g id="SvgjsG1016"><text id="SvgjsText1017" font-family="微软雅黑" text-anchor="middle" font-size="13px" width="92px" fill="#323232" font-weight="400" align="middle" anchor="middle" family="微软雅黑" size="13px" weight="400" font-style="" opacity="1" y="13.55" transform="rotate(0)"><tspan id="SvgjsTspan1018" dy="16" x="56"><tspan id="SvgjsTspan1019" style="text-decoration:;">JobManager</tspan></tspan></text></g></g><g id="SvgjsG1020" transform="translate(74,223)"><path id="SvgjsPath1021" d="M 0 0L 112 0L 112 47L 0 47Z" stroke="none" fill-opacity="1" fill="#ccccff"></path><g id="SvgjsG1022"><text id="SvgjsText1023" font-family="微软雅黑" text-anchor="middle" font-size="13px" width="92px" fill="#323232" font-weight="400" align="middle" anchor="middle" family="微软雅黑" size="13px" weight="400" font-style="" opacity="1" y="13.55" transform="rotate(0)"><tspan id="SvgjsTspan1024" dy="16" x="56"><tspan id="SvgjsTspan1025" style="text-decoration:;">TaskManager</tspan></tspan></text></g></g><g id="SvgjsG1026" transform="translate(409,223)"><path id="SvgjsPath1027" d="M 0 0L 112 0L 112 47L 0 47Z" stroke="none" fill-opacity="1" fill="#ccccff"></path><g id="SvgjsG1028"><text id="SvgjsText1029" font-family="微软雅黑" text-anchor="middle" font-size="13px" width="92px" fill="#323232" font-weight="400" align="middle" anchor="middle" family="微软雅黑" size="13px" weight="400" font-style="" opacity="1" y="13.55" transform="rotate(0)"><tspan id="SvgjsTspan1030" dy="16" x="56"><tspan id="SvgjsTspan1031" style="text-decoration:;">TaskManager</tspan></tspan></text></g></g><g id="SvgjsG1032"><path id="SvgjsPath1033" d="M120 48.5L170.5 48.5L170.5 48.5L221 48.5" stroke="#323232" stroke-width="2" fill="none" marker-end="url(#SvgjsMarker1034)"></path><rect id="SvgjsRect1036" width="52" height="16" x="144.5" y="40.5" fill="#ffffff"></rect><text id="SvgjsText1037" font-family="微软雅黑" text-anchor="middle" font-size="13px" width="52px" fill="#323232" font-weight="400" align="top" anchor="middle" family="微软雅黑" size="13px" weight="400" font-style="" opacity="1" y="38.55" transform="rotate(0)"><tspan id="SvgjsTspan1038" dy="16" x="170.5"><tspan id="SvgjsTspan1039" style="text-decoration:;">提交作业</tspan></tspan></text></g><g id="SvgjsG1040"><path id="SvgjsPath1041" d="M242 71C 188 103 160 146 130 223" stroke="#323232" stroke-width="2" fill="none" marker-end="url(#SvgjsMarker1042)"></path><rect id="SvgjsRect1044" width="52" height="16" x="151" y="122.125" fill="#ffffff"></rect><text id="SvgjsText1045" font-family="微软雅黑" text-anchor="middle" font-size="13px" width="52px" fill="#323232" font-weight="400" align="top" anchor="middle" family="微软雅黑" size="13px" weight="400" font-style="" opacity="1" y="120.175" transform="rotate(0)"><tspan id="SvgjsTspan1046" dy="16" x="177"><tspan id="SvgjsTspan1047" style="text-decoration:;">分发任务</tspan></tspan></text></g><g id="SvgjsG1048"><path id="SvgjsPath1049" d="M165 223C 211 193 252 135 266 72" stroke="#323232" stroke-width="2" fill="none" marker-end="url(#SvgjsMarker1050)"></path><rect id="SvgjsRect1052" width="52" height="16" x="201.5" y="151.875" fill="#ffffff"></rect><text id="SvgjsText1053" font-family="微软雅黑" text-anchor="middle" font-size="13px" width="52px" fill="#323232" font-weight="400" align="top" anchor="middle" family="微软雅黑" size="13px" weight="400" font-style="" opacity="1" y="149.925" transform="rotate(0)"><tspan id="SvgjsTspan1054" dy="16" x="227.5"><tspan id="SvgjsTspan1055" style="text-decoration:;">汇报状态</tspan></tspan></text></g><g id="SvgjsG1056"><path id="SvgjsPath1057" d="M313 72C 381 109 422 149 454 223" stroke="#323232" stroke-width="2" fill="none" marker-end="url(#SvgjsMarker1058)"></path><rect id="SvgjsRect1060" width="52" height="16" x="371" y="125.625" fill="#ffffff"></rect><text id="SvgjsText1061" font-family="微软雅黑" text-anchor="middle" font-size="13px" width="52px" fill="#323232" font-weight="400" align="top" anchor="middle" family="微软雅黑" size="13px" weight="400" font-style="" opacity="1" y="123.675" transform="rotate(0)"><tspan id="SvgjsTspan1062" dy="16" x="397"><tspan id="SvgjsTspan1063" style="text-decoration:;">分发任务</tspan></tspan></text></g><g id="SvgjsG1064"><path id="SvgjsPath1065" d="M431 223C 350 200 318 151 290 72" stroke="#323232" stroke-width="2" fill="none" marker-end="url(#SvgjsMarker1066)"></path><rect id="SvgjsRect1068" width="52" height="16" x="314.625" y="160.5" fill="#ffffff"></rect><text id="SvgjsText1069" font-family="微软雅黑" text-anchor="middle" font-size="13px" width="52px" fill="#323232" font-weight="400" align="top" anchor="middle" family="微软雅黑" size="13px" weight="400" font-style="" opacity="1" y="158.55" transform="rotate(0)"><tspan id="SvgjsTspan1070" dy="16" x="340.625"><tspan id="SvgjsTspan1071" style="text-decoration:;">汇报状态</tspan></tspan></text></g><g id="SvgjsG1072"><path id="SvgjsPath1073" d="M186 246.5C 275.2 246.5 319.79999999999995 246.5 409 246.5" stroke="#323232" stroke-width="2" fill="none" marker-start="url(#SvgjsMarker1074)" marker-end="url(#SvgjsMarker1076)"></path><rect id="SvgjsRect1078" width="110" height="32" x="242.5" y="230.5" fill="#ffffff"></rect><text id="SvgjsText1079" font-family="微软雅黑" text-anchor="middle" font-size="13px" width="110px" fill="#323232" font-weight="400" align="top" anchor="middle" family="微软雅黑" size="13px" weight="400" font-style="" opacity="1" y="228.55" transform="rotate(0)"><tspan id="SvgjsTspan1080" dy="16" x="297.5"><tspan id="SvgjsTspan1081" style="text-decoration:;">交互中间结果</tspan></tspan><tspan id="SvgjsTspan1082" dy="16" x="297.5"><tspan id="SvgjsTspan1083" style="text-decoration:;">Shuffle/Broadcast</tspan></tspan></text></g></svg>