<svg id="SvgjsSvg1298" width="546" height="384.5" xmlns="http://www.w3.org/2000/svg" version="1.1" xmlns:xlink="http://www.w3.org/1999/xlink" xmlns:svgjs="http://svgjs.com/svgjs"><defs id="SvgjsDefs1299"><marker id="SvgjsMarker1326" markerWidth="16" markerHeight="12" refX="16" refY="6" viewBox="0 0 16 12" orient="auto" markerUnits="userSpaceOnUse" stroke-dasharray="0,0"><path id="SvgjsPath1327" d="M0,2 L14,6 L0,11 L0,2" fill="#323232" stroke="#323232" stroke-width="2"></path></marker><marker id="SvgjsMarker1334" markerWidth="16" markerHeight="12" refX="16" refY="6" viewBox="0 0 16 12" orient="auto" markerUnits="userSpaceOnUse" stroke-dasharray="0,0"><path id="SvgjsPath1335" d="M0,2 L14,6 L0,11 L0,2" fill="#323232" stroke="#323232" stroke-width="2"></path></marker><marker id="SvgjsMarker1342" markerWidth="16" markerHeight="12" refX="16" refY="6" viewBox="0 0 16 12" orient="auto" markerUnits="userSpaceOnUse" stroke-dasharray="0,0"><path id="SvgjsPath1343" d="M0,2 L14,6 L0,11 L0,2" fill="#323232" stroke="#323232" stroke-width="2"></path></marker><marker id="SvgjsMarker1350" markerWidth="16" markerHeight="12" refX="16" refY="6" viewBox="0 0 16 12" orient="auto" markerUnits="userSpaceOnUse" stroke-dasharray="0,0"><path id="SvgjsPath1351" d="M0,2 L14,6 L0,11 L0,2" fill="#323232" stroke="#323232" stroke-width="2"></path></marker><marker id="SvgjsMarker1358" markerWidth="16" markerHeight="12" refX="16" refY="6" viewBox="0 0 16 12" orient="auto" markerUnits="userSpaceOnUse" stroke-dasharray="0,0"><path id="SvgjsPath1359" d="M0,2 L14,6 L0,11 L0,2" fill="#323232" stroke="#323232" stroke-width="2"></path></marker><marker id="SvgjsMarker1366" markerWidth="16" markerHeight="12" refX="0" refY="6" viewBox="0 0 16 12" orient="auto" markerUnits="userSpaceOnUse" stroke-dasharray="0,0"><path id="SvgjsPath1367" d="M15,1.5 L2,6 L15,10.5" fill="#323232" stroke="#323232" stroke-width="2"></path></marker><marker id="SvgjsMarker1368" markerWidth="16" markerHeight="12" refX="16" refY="6" viewBox="0 0 16 12" orient="auto" markerUnits="userSpaceOnUse" stroke-dasharray="0,0"><path id="SvgjsPath1369" d="M0,2 L14,6 L0,11 L0,2" fill="#323232" stroke="#323232" stroke-width="2"></path></marker><marker id="SvgjsMarker1392" markerWidth="16" markerHeight="12" refX="0" refY="6" viewBox="0 0 16 12" orient="auto" markerUnits="userSpaceOnUse" stroke-dasharray="0,0"><path id="SvgjsPath1393" d="M15,1.5 L2,6 L15,10.5" fill="#323232" stroke="#323232" stroke-width="2"></path></marker><marker id="SvgjsMarker1394" markerWidth="16" markerHeight="12" refX="16" refY="6" viewBox="0 0 16 12" orient="auto" markerUnits="userSpaceOnUse" stroke-dasharray="0,0"><path id="SvgjsPath1395" d="M0,2 L14,6 L0,11 L0,2" fill="#323232" stroke="#323232" stroke-width="2"></path></marker><marker id="SvgjsMarker1398" markerWidth="16" markerHeight="12" refX="0" refY="6" viewBox="0 0 16 12" orient="auto" markerUnits="userSpaceOnUse" stroke-dasharray="0,0"><path id="SvgjsPath1399" d="M15,1.5 L2,6 L15,10.5" fill="#323232" stroke="#323232" stroke-width="2"></path></marker><marker id="SvgjsMarker1400" markerWidth="16" markerHeight="12" refX="16" refY="6" viewBox="0 0 16 12" orient="auto" markerUnits="userSpaceOnUse" stroke-dasharray="0,0"><path id="SvgjsPath1401" d="M0,2 L14,6 L0,11 L0,2" fill="#323232" stroke="#323232" stroke-width="2"></path></marker></defs><g id="SvgjsG1300" transform="translate(25,120.5)"><path id="SvgjsPath1301" d="M 0 4Q 0 0 4 0L 91 0Q 95 0 95 4L 95 31Q 95 35 91 35L 4 35Q 0 35 0 31Z" stroke="none" fill-opacity="1" fill="#ccffff"></path><g id="SvgjsG1302"><text id="SvgjsText1303" font-family="微软雅黑" text-anchor="middle" font-size="13px" width="75px" fill="#323232" font-weight="400" align="middle" anchor="middle" family="微软雅黑" size="13px" weight="400" font-style="" opacity="1" y="7.55" transform="rotate(0)"><tspan id="SvgjsTspan1304" dy="16" x="47.5"><tspan id="SvgjsTspan1305" style="text-decoration:;">Client</tspan></tspan></text></g></g><g id="SvgjsG1306" transform="translate(221,114.5)"><path id="SvgjsPath1307" d="M 0 0L 112 0L 112 47L 0 47Z" stroke="none" fill-opacity="1" fill="#ffcccc"></path><g id="SvgjsG1308"><text id="SvgjsText1309" font-family="微软雅黑" text-anchor="middle" font-size="13px" width="92px" fill="#323232" font-weight="400" align="middle" anchor="middle" family="微软雅黑" size="13px" weight="400" font-style="" opacity="1" y="13.55" transform="rotate(0)"><tspan id="SvgjsTspan1310" dy="16" x="56"><tspan id="SvgjsTspan1311" style="text-decoration:;">JobManager</tspan></tspan></text></g></g><g id="SvgjsG1312" transform="translate(74,312.5)"><path id="SvgjsPath1313" d="M 0 0L 112 0L 112 47L 0 47Z" stroke="none" fill-opacity="1" fill="#ccccff"></path><g id="SvgjsG1314"><text id="SvgjsText1315" font-family="微软雅黑" text-anchor="middle" font-size="13px" width="92px" fill="#323232" font-weight="400" align="middle" anchor="middle" family="微软雅黑" size="13px" weight="400" font-style="" opacity="1" y="13.55" transform="rotate(0)"><tspan id="SvgjsTspan1316" dy="16" x="56"><tspan id="SvgjsTspan1317" style="text-decoration:;">TaskManager</tspan></tspan></text></g></g><g id="SvgjsG1318" transform="translate(409,312.5)"><path id="SvgjsPath1319" d="M 0 0L 112 0L 112 47L 0 47Z" stroke="none" fill-opacity="1" fill="#ccccff"></path><g id="SvgjsG1320"><text id="SvgjsText1321" font-family="微软雅黑" text-anchor="middle" font-size="13px" width="92px" fill="#323232" font-weight="400" align="middle" anchor="middle" family="微软雅黑" size="13px" weight="400" font-style="" opacity="1" y="13.55" transform="rotate(0)"><tspan id="SvgjsTspan1322" dy="16" x="56"><tspan id="SvgjsTspan1323" style="text-decoration:;">TaskManager</tspan></tspan></text></g></g><g id="SvgjsG1324"><path id="SvgjsPath1325" d="M120 138L170.5 138L170.5 138L221 138" stroke="#323232" stroke-width="2" fill="none" marker-end="url(#SvgjsMarker1326)"></path><rect id="SvgjsRect1328" width="52" height="16" x="144.5" y="130" fill="#ffffff"></rect><text id="SvgjsText1329" font-family="微软雅黑" text-anchor="middle" font-size="13px" width="52px" fill="#323232" font-weight="400" align="top" anchor="middle" family="微软雅黑" size="13px" weight="400" font-style="" opacity="1" y="128.05" transform="rotate(0)"><tspan id="SvgjsTspan1330" dy="16" x="170.5"><tspan id="SvgjsTspan1331" style="text-decoration:;">提交作业</tspan></tspan></text></g><g id="SvgjsG1332"><path id="SvgjsPath1333" d="M242 160.5C 188 192.5 160 235.5 130 312.5" stroke="#323232" stroke-width="2" fill="none" marker-end="url(#SvgjsMarker1334)"></path><rect id="SvgjsRect1336" width="52" height="16" x="151" y="211.625" fill="#ffffff"></rect><text id="SvgjsText1337" font-family="微软雅黑" text-anchor="middle" font-size="13px" width="52px" fill="#323232" font-weight="400" align="top" anchor="middle" family="微软雅黑" size="13px" weight="400" font-style="" opacity="1" y="209.675" transform="rotate(0)"><tspan id="SvgjsTspan1338" dy="16" x="177"><tspan id="SvgjsTspan1339" style="text-decoration:;">分发任务</tspan></tspan></text></g><g id="SvgjsG1340"><path id="SvgjsPath1341" d="M165 312.5C 211 282.5 252 224.5 266 161.5" stroke="#323232" stroke-width="2" fill="none" marker-end="url(#SvgjsMarker1342)"></path><rect id="SvgjsRect1344" width="52" height="16" x="201.5" y="241.375" fill="#ffffff"></rect><text id="SvgjsText1345" font-family="微软雅黑" text-anchor="middle" font-size="13px" width="52px" fill="#323232" font-weight="400" align="top" anchor="middle" family="微软雅黑" size="13px" weight="400" font-style="" opacity="1" y="239.425" transform="rotate(0)"><tspan id="SvgjsTspan1346" dy="16" x="227.5"><tspan id="SvgjsTspan1347" style="text-decoration:;">汇报状态</tspan></tspan></text></g><g id="SvgjsG1348"><path id="SvgjsPath1349" d="M313 161.5C 381 198.5 422 238.5 454 312.5" stroke="#323232" stroke-width="2" fill="none" marker-end="url(#SvgjsMarker1350)"></path><rect id="SvgjsRect1352" width="52" height="16" x="371" y="215.125" fill="#ffffff"></rect><text id="SvgjsText1353" font-family="微软雅黑" text-anchor="middle" font-size="13px" width="52px" fill="#323232" font-weight="400" align="top" anchor="middle" family="微软雅黑" size="13px" weight="400" font-style="" opacity="1" y="213.175" transform="rotate(0)"><tspan id="SvgjsTspan1354" dy="16" x="397"><tspan id="SvgjsTspan1355" style="text-decoration:;">分发任务</tspan></tspan></text></g><g id="SvgjsG1356"><path id="SvgjsPath1357" d="M431 312.5C 350 289.5 318 240.5 290 161.5" stroke="#323232" stroke-width="2" fill="none" marker-end="url(#SvgjsMarker1358)"></path><rect id="SvgjsRect1360" width="52" height="16" x="314.625" y="250" fill="#ffffff"></rect><text id="SvgjsText1361" font-family="微软雅黑" text-anchor="middle" font-size="13px" width="52px" fill="#323232" font-weight="400" align="top" anchor="middle" family="微软雅黑" size="13px" weight="400" font-style="" opacity="1" y="248.05" transform="rotate(0)"><tspan id="SvgjsTspan1362" dy="16" x="340.625"><tspan id="SvgjsTspan1363" style="text-decoration:;">汇报状态</tspan></tspan></text></g><g id="SvgjsG1364"><path id="SvgjsPath1365" d="M186 336C 275.2 336 319.79999999999995 336 409 336" stroke="#323232" stroke-width="2" fill="none" marker-start="url(#SvgjsMarker1366)" marker-end="url(#SvgjsMarker1368)"></path><rect id="SvgjsRect1370" width="110" height="32" x="242.5" y="320" fill="#ffffff"></rect><text id="SvgjsText1371" font-family="微软雅黑" text-anchor="middle" font-size="13px" width="110px" fill="#323232" font-weight="400" align="top" anchor="middle" family="微软雅黑" size="13px" weight="400" font-style="" opacity="1" y="318.05" transform="rotate(0)"><tspan id="SvgjsTspan1372" dy="16" x="297.5"><tspan id="SvgjsTspan1373" style="text-decoration:;">交互中间结果</tspan></tspan><tspan id="SvgjsTspan1374" dy="16" x="297.5"><tspan id="SvgjsTspan1375" style="text-decoration:;">Shuffle/Broadcast</tspan></tspan></text></g><g id="SvgjsG1376" transform="translate(229,26)"><path id="SvgjsPath1377" d="M 11.52 31.499999999999996C -9.600000000000001 22.5 3.84 15.749999999999998 8.64 13.5C 6.720000000000001 2.25 30.72 0 40.32 4.5C 48 -2.25 72 0 72 6.75C 91.19999999999999 4.5 98.88 13.5 91.19999999999999 24.750000000000004C 97.92 33.75 91.19999999999999 45 69.12 40.5C 64.32000000000001 46.35 45.12 46.35 40.32 40.5C 30.72 45 11.52 42.75 11.52 31.499999999999996Z" stroke="rgba(50,50,50,1)" stroke-width="2" fill-opacity="1" fill="#cce5ff"></path><g id="SvgjsG1378"><text id="SvgjsText1379" font-family="微软雅黑" text-anchor="middle" font-size="13px" width="76px" fill="#323232" font-weight="400" align="middle" anchor="middle" family="微软雅黑" size="13px" weight="400" font-style="" opacity="1" y="12.55" transform="rotate(0)"><tspan id="SvgjsTspan1380" dy="16" x="48"><tspan id="SvgjsTspan1381" style="text-decoration:;">Zookeeper</tspan></tspan></text></g></g><g id="SvgjsG1382" transform="translate(409,25)"><path id="SvgjsPath1383" d="M 0 0L 112 0L 112 47L 0 47Z" stroke="none" fill-opacity="1" fill="#ffcccc"></path><g id="SvgjsG1384"><text id="SvgjsText1385" font-family="微软雅黑" text-anchor="middle" font-size="13px" width="92px" fill="#323232" font-weight="400" align="middle" anchor="middle" family="微软雅黑" size="13px" weight="400" font-style="" opacity="1" y="5.55" transform="rotate(0)"><tspan id="SvgjsTspan1386" dy="16" x="56"><tspan id="SvgjsTspan1387" style="text-decoration:;">JobManager</tspan></tspan><tspan id="SvgjsTspan1388" dy="16" x="56"><tspan id="SvgjsTspan1389" style="text-decoration:;">（Standby）</tspan></tspan></text></g></g><g id="SvgjsG1390"><path id="SvgjsPath1391" d="M277 114.5C 277 96.5030412084275 273.0485090799635 87.23873679556961 276.1736481776669 69.5151922469878" stroke="#323232" stroke-width="2" fill="none" marker-start="url(#SvgjsMarker1392)" marker-end="url(#SvgjsMarker1394)"></path></g><g id="SvgjsG1396"><path id="SvgjsPath1397" d="M409 48.5C 373.4 48.5 355.6 48.5 320 48.5" stroke="#323232" stroke-width="2" fill="none" marker-start="url(#SvgjsMarker1398)" marker-end="url(#SvgjsMarker1400)"></path><rect id="SvgjsRect1402" width="26" height="16" x="351.5" y="40.5" fill="#ffffff"></rect><text id="SvgjsText1403" font-family="微软雅黑" text-anchor="middle" font-size="13px" width="26px" fill="#323232" font-weight="400" align="top" anchor="middle" family="微软雅黑" size="13px" weight="400" font-style="" opacity="1" y="38.55" transform="rotate(0)"><tspan id="SvgjsTspan1404" dy="16" x="364.5"><tspan id="SvgjsTspan1405" style="text-decoration:;">监控</tspan></tspan></text></g></svg>